# xmcd
#
# Track frame offsets: 
#        150
#        14734
#        29269
#        42349
#        56292
#        67488
#        81488
#        96890
#        111004
#        123368
#        137032
#        150503
#        164437
#        178279
#        192088
#        206029
#        219435
#        232829
#        246043
#        259399
#        273518
#        287801
#        302675
#        316711
#        330026
#        345143
#
# Disc length: 4779 seconds
#
# Revision: 3
# Processed by: cddbd v1.5.2PL0 Copyright (c) Steve Scherf et al.
# Submitted via: ExactAudioCopy v1.0b3
#
DISCID=7512a91a
DTITLE=Beiderbecke, Bix - The Bix Beiderbecke Story [Disc 2 - In A Mis
DTITLE=t]
DYEAR=2003
DGENRE=Jazz
TTITLE0=Riverboat Shuffle
TTITLE1=I'm Coming Virginia
TTITLE2=Way Down Yonder In New Orleans
TTITLE3=For No Reason At All In C
TTITLE4=In My Merry Oldsmobile
TTITLE5=Three Blind Mice
TTITLE6=Blue River
TTITLE7=There's A Cradle In Caroline
TTITLE8=In A Mist
TTITLE9=Clementine (From New Orleans)
TTITLE10=Wringin' And Twistin'
TTITLE11=Humpty Dumpty
TTITLE12=Krazy Kat
TTITLE13=The Baltimore
TTITLE14=There Ain't No Land Like Dixieland To Me
TTITLE15=There's A Cradle In Caroline
TTITLE16=Just An Hour Of Love
TTITLE17=I'm Wonderin' Who
TTITLE18=At The Jazz Band Ball
TTITLE19=Royal Garden Blues
TTITLE20=Jazz Me Blues
TTITLE21=I'm More Than Satisfied
TTITLE22=Clorinda
TTITLE23=Three Blind Mice
TTITLE24=Goose Pimples
TTITLE25=Sorry
EXTD=
EXTT0=
EXTT1=
EXTT2=
EXTT3=
EXTT4=
EXTT5=
EXTT6=
EXTT7=
EXTT8=
EXTT9=
EXTT10=
EXTT11=
EXTT12=
EXTT13=
EXTT14=
EXTT15=
EXTT16=
EXTT17=
EXTT18=
EXTT19=
EXTT20=
EXTT21=
EXTT22=
EXTT23=
EXTT24=
EXTT25=
PLAYORDER=
